<svg width="10" height="24" viewBox="0 0 10 24" fill="none" xmlns="http://www.w3.org/2000/svg">
<path d="M0.136719 7.62012L9.15242 12.2348L0.136719 16.8495L2.03008 12.2348L0.136719 7.62012Z" fill="#56047E"/>
<path d="M0.136758 16.9863C0.103204 16.9863 0.0700004 16.9739 0.0441801 16.9502C0.00207073 16.9115 -0.0114839 16.8506 0.0102348 16.7976L1.88229 12.2348L0.0102348 7.67202C-0.0114839 7.61909 0.00207073 7.55822 0.0441801 7.51949C0.086309 7.48075 0.148047 7.47234 0.199024 7.49843L9.21473 12.1131C9.26041 12.1365 9.28916 12.1835 9.28916 12.2348C9.28916 12.2862 9.26041 12.3332 9.21473 12.3565L0.199024 16.9713C0.179297 16.9813 0.15795 16.9863 0.136758 16.9863ZM0.403555 7.91029L2.15656 12.1829C2.17022 12.2162 2.17022 12.2535 2.15656 12.2867L0.403555 16.5594L8.85234 12.2348L0.403555 7.91029Z" fill="black"/>
</svg>
